<mxfile host="app.diagrams.net" agent="Mozilla/5.0 (X11; Linux x86_64; rv:127.0) Gecko/20100101 Firefox/127.0" version="24.7.17">
  <diagram name="PÃ¡gina-1" id="S1Aj2x8I6Uafc8wCqOl9">
    <mxGraphModel dx="956" dy="509" grid="1" gridSize="10" guides="1" tooltips="1" connect="1" arrows="1" fold="1" page="1" pageScale="1" pageWidth="1169" pageHeight="827" math="0" shadow="0">
      <root>
        <mxCell id="0" />
        <mxCell id="1" parent="0" />
        <mxCell id="CBy9VKY9iGGaSvIGsEqv-4" style="rounded=0;orthogonalLoop=1;jettySize=auto;html=1;exitX=1;exitY=0.5;exitDx=0;exitDy=0;entryX=0;entryY=0.5;entryDx=0;entryDy=0;endArrow=none;endFill=0;" edge="1" parent="1" source="CBy9VKY9iGGaSvIGsEqv-1" target="CBy9VKY9iGGaSvIGsEqv-2">
          <mxGeometry relative="1" as="geometry" />
        </mxCell>
        <mxCell id="CBy9VKY9iGGaSvIGsEqv-8" style="edgeStyle=none;shape=connector;rounded=0;orthogonalLoop=1;jettySize=auto;html=1;exitX=0.5;exitY=1;exitDx=0;exitDy=0;entryX=0.5;entryY=0;entryDx=0;entryDy=0;strokeColor=default;align=center;verticalAlign=middle;fontFamily=Helvetica;fontSize=11;fontColor=default;labelBackgroundColor=default;endArrow=none;endFill=0;" edge="1" parent="1" source="CBy9VKY9iGGaSvIGsEqv-1" target="CBy9VKY9iGGaSvIGsEqv-6">
          <mxGeometry relative="1" as="geometry" />
        </mxCell>
        <mxCell id="CBy9VKY9iGGaSvIGsEqv-1" value="Salas" style="rounded=0;whiteSpace=wrap;html=1;" vertex="1" parent="1">
          <mxGeometry x="342" y="136" width="120" height="60" as="geometry" />
        </mxCell>
        <mxCell id="CBy9VKY9iGGaSvIGsEqv-5" style="edgeStyle=none;shape=connector;rounded=0;orthogonalLoop=1;jettySize=auto;html=1;exitX=1;exitY=0.5;exitDx=0;exitDy=0;entryX=0;entryY=0.5;entryDx=0;entryDy=0;strokeColor=default;align=center;verticalAlign=middle;fontFamily=Helvetica;fontSize=11;fontColor=default;labelBackgroundColor=default;endArrow=none;endFill=0;" edge="1" parent="1" source="CBy9VKY9iGGaSvIGsEqv-2" target="CBy9VKY9iGGaSvIGsEqv-3">
          <mxGeometry relative="1" as="geometry" />
        </mxCell>
        <mxCell id="CBy9VKY9iGGaSvIGsEqv-2" value="Relationship" style="shape=rhombus;perimeter=rhombusPerimeter;whiteSpace=wrap;html=1;align=center;" vertex="1" parent="1">
          <mxGeometry x="592" y="136" width="120" height="60" as="geometry" />
        </mxCell>
        <mxCell id="CBy9VKY9iGGaSvIGsEqv-16" style="edgeStyle=none;shape=connector;rounded=0;orthogonalLoop=1;jettySize=auto;html=1;exitX=0;exitY=1;exitDx=0;exitDy=0;entryX=1;entryY=0;entryDx=0;entryDy=0;strokeColor=default;align=center;verticalAlign=middle;fontFamily=Helvetica;fontSize=11;fontColor=default;labelBackgroundColor=default;endArrow=none;endFill=0;" edge="1" parent="1" source="CBy9VKY9iGGaSvIGsEqv-3" target="CBy9VKY9iGGaSvIGsEqv-15">
          <mxGeometry relative="1" as="geometry" />
        </mxCell>
        <mxCell id="CBy9VKY9iGGaSvIGsEqv-3" value="Cines" style="rounded=0;whiteSpace=wrap;html=1;" vertex="1" parent="1">
          <mxGeometry x="842" y="136" width="120" height="60" as="geometry" />
        </mxCell>
        <mxCell id="CBy9VKY9iGGaSvIGsEqv-9" style="edgeStyle=none;shape=connector;rounded=0;orthogonalLoop=1;jettySize=auto;html=1;exitX=0.5;exitY=1;exitDx=0;exitDy=0;strokeColor=default;align=center;verticalAlign=middle;fontFamily=Helvetica;fontSize=11;fontColor=default;labelBackgroundColor=default;endArrow=none;endFill=0;" edge="1" parent="1" source="CBy9VKY9iGGaSvIGsEqv-6" target="CBy9VKY9iGGaSvIGsEqv-7">
          <mxGeometry relative="1" as="geometry" />
        </mxCell>
        <mxCell id="CBy9VKY9iGGaSvIGsEqv-6" value="Relationship" style="shape=rhombus;perimeter=rhombusPerimeter;whiteSpace=wrap;html=1;align=center;" vertex="1" parent="1">
          <mxGeometry x="342" y="256" width="120" height="60" as="geometry" />
        </mxCell>
        <mxCell id="CBy9VKY9iGGaSvIGsEqv-13" style="edgeStyle=none;shape=connector;rounded=0;orthogonalLoop=1;jettySize=auto;html=1;exitX=1;exitY=0.5;exitDx=0;exitDy=0;entryX=0;entryY=0.5;entryDx=0;entryDy=0;strokeColor=default;align=center;verticalAlign=middle;fontFamily=Helvetica;fontSize=11;fontColor=default;labelBackgroundColor=default;endArrow=none;endFill=0;" edge="1" parent="1" source="CBy9VKY9iGGaSvIGsEqv-7" target="CBy9VKY9iGGaSvIGsEqv-11">
          <mxGeometry relative="1" as="geometry">
            <mxPoint x="420" y="451" as="sourcePoint" />
            <mxPoint x="560.6799999999998" y="446.68000000000006" as="targetPoint" />
          </mxGeometry>
        </mxCell>
        <mxCell id="CBy9VKY9iGGaSvIGsEqv-30" style="edgeStyle=none;shape=connector;rounded=0;orthogonalLoop=1;jettySize=auto;html=1;strokeColor=default;align=center;verticalAlign=middle;fontFamily=Helvetica;fontSize=11;fontColor=default;labelBackgroundColor=default;endArrow=none;endFill=0;" edge="1" parent="1" source="CBy9VKY9iGGaSvIGsEqv-7" target="CBy9VKY9iGGaSvIGsEqv-36">
          <mxGeometry relative="1" as="geometry">
            <mxPoint x="402" y="505" as="targetPoint" />
          </mxGeometry>
        </mxCell>
        <mxCell id="CBy9VKY9iGGaSvIGsEqv-7" value="Peliculas" style="rounded=0;whiteSpace=wrap;html=1;" vertex="1" parent="1">
          <mxGeometry x="342" y="376" width="120" height="60" as="geometry" />
        </mxCell>
        <mxCell id="CBy9VKY9iGGaSvIGsEqv-14" style="edgeStyle=none;shape=connector;rounded=0;orthogonalLoop=1;jettySize=auto;html=1;exitX=0.5;exitY=1;exitDx=0;exitDy=0;strokeColor=default;align=center;verticalAlign=middle;fontFamily=Helvetica;fontSize=11;fontColor=default;labelBackgroundColor=default;endArrow=none;endFill=0;" edge="1" parent="1" source="CBy9VKY9iGGaSvIGsEqv-11" target="CBy9VKY9iGGaSvIGsEqv-12">
          <mxGeometry relative="1" as="geometry" />
        </mxCell>
        <mxCell id="CBy9VKY9iGGaSvIGsEqv-11" value="Relationship" style="shape=rhombus;perimeter=rhombusPerimeter;whiteSpace=wrap;html=1;align=center;" vertex="1" parent="1">
          <mxGeometry x="592" y="376" width="120" height="60" as="geometry" />
        </mxCell>
        <mxCell id="CBy9VKY9iGGaSvIGsEqv-12" value="Pases" style="rounded=0;whiteSpace=wrap;html=1;" vertex="1" parent="1">
          <mxGeometry x="592" y="505" width="120" height="60" as="geometry" />
        </mxCell>
        <mxCell id="CBy9VKY9iGGaSvIGsEqv-17" style="edgeStyle=none;shape=connector;rounded=0;orthogonalLoop=1;jettySize=auto;html=1;exitX=0;exitY=1;exitDx=0;exitDy=0;entryX=1;entryY=0;entryDx=0;entryDy=0;strokeColor=default;align=center;verticalAlign=middle;fontFamily=Helvetica;fontSize=11;fontColor=default;labelBackgroundColor=default;endArrow=none;endFill=0;" edge="1" parent="1" source="CBy9VKY9iGGaSvIGsEqv-15" target="CBy9VKY9iGGaSvIGsEqv-7">
          <mxGeometry relative="1" as="geometry" />
        </mxCell>
        <mxCell id="CBy9VKY9iGGaSvIGsEqv-15" value="&lt;div&gt;proyectan&lt;/div&gt;" style="shape=rhombus;perimeter=rhombusPerimeter;whiteSpace=wrap;html=1;align=center;" vertex="1" parent="1">
          <mxGeometry x="592" y="266" width="120" height="60" as="geometry" />
        </mxCell>
        <mxCell id="CBy9VKY9iGGaSvIGsEqv-23" style="edgeStyle=none;shape=connector;rounded=0;orthogonalLoop=1;jettySize=auto;html=1;exitX=0;exitY=0.5;exitDx=0;exitDy=0;entryX=1;entryY=0.25;entryDx=0;entryDy=0;strokeColor=default;align=center;verticalAlign=middle;fontFamily=Helvetica;fontSize=11;fontColor=default;labelBackgroundColor=default;endArrow=none;endFill=0;" edge="1" parent="1" source="CBy9VKY9iGGaSvIGsEqv-21" target="CBy9VKY9iGGaSvIGsEqv-12">
          <mxGeometry relative="1" as="geometry" />
        </mxCell>
        <mxCell id="CBy9VKY9iGGaSvIGsEqv-21" value="Id" style="ellipse;whiteSpace=wrap;html=1;align=center;fontStyle=4;fontFamily=Helvetica;fontSize=11;fontColor=default;labelBackgroundColor=default;" vertex="1" parent="1">
          <mxGeometry x="742" y="490" width="100" height="40" as="geometry" />
        </mxCell>
        <mxCell id="CBy9VKY9iGGaSvIGsEqv-24" style="edgeStyle=none;shape=connector;rounded=0;orthogonalLoop=1;jettySize=auto;html=1;exitX=0;exitY=0.5;exitDx=0;exitDy=0;entryX=1;entryY=0.75;entryDx=0;entryDy=0;strokeColor=default;align=center;verticalAlign=middle;fontFamily=Helvetica;fontSize=11;fontColor=default;labelBackgroundColor=default;endArrow=none;endFill=0;" edge="1" parent="1" source="CBy9VKY9iGGaSvIGsEqv-22" target="CBy9VKY9iGGaSvIGsEqv-12">
          <mxGeometry relative="1" as="geometry" />
        </mxCell>
        <mxCell id="CBy9VKY9iGGaSvIGsEqv-22" value="horario" style="ellipse;whiteSpace=wrap;html=1;align=center;fontFamily=Helvetica;fontSize=11;fontColor=default;labelBackgroundColor=default;" vertex="1" parent="1">
          <mxGeometry x="742" y="540" width="100" height="40" as="geometry" />
        </mxCell>
        <mxCell id="CBy9VKY9iGGaSvIGsEqv-27" style="edgeStyle=none;shape=connector;rounded=0;orthogonalLoop=1;jettySize=auto;html=1;exitX=1;exitY=0.5;exitDx=0;exitDy=0;entryX=0;entryY=0;entryDx=0;entryDy=0;strokeColor=default;align=center;verticalAlign=middle;fontFamily=Helvetica;fontSize=11;fontColor=default;labelBackgroundColor=default;endArrow=none;endFill=0;" edge="1" parent="1" source="CBy9VKY9iGGaSvIGsEqv-25" target="CBy9VKY9iGGaSvIGsEqv-7">
          <mxGeometry relative="1" as="geometry" />
        </mxCell>
        <mxCell id="CBy9VKY9iGGaSvIGsEqv-25" value="Id" style="ellipse;whiteSpace=wrap;html=1;align=center;fontStyle=4;fontFamily=Helvetica;fontSize=11;fontColor=default;labelBackgroundColor=default;" vertex="1" parent="1">
          <mxGeometry x="220" y="315.5" width="100" height="40" as="geometry" />
        </mxCell>
        <mxCell id="CBy9VKY9iGGaSvIGsEqv-28" style="edgeStyle=none;shape=connector;rounded=0;orthogonalLoop=1;jettySize=auto;html=1;exitX=1;exitY=0.5;exitDx=0;exitDy=0;strokeColor=default;align=center;verticalAlign=middle;fontFamily=Helvetica;fontSize=11;fontColor=default;labelBackgroundColor=default;endArrow=none;endFill=0;entryX=0;entryY=0.25;entryDx=0;entryDy=0;" edge="1" parent="1" source="CBy9VKY9iGGaSvIGsEqv-26" target="CBy9VKY9iGGaSvIGsEqv-7">
          <mxGeometry relative="1" as="geometry">
            <mxPoint x="320" y="410" as="targetPoint" />
          </mxGeometry>
        </mxCell>
        <mxCell id="CBy9VKY9iGGaSvIGsEqv-26" value="titulo" style="ellipse;whiteSpace=wrap;html=1;align=center;fontFamily=Helvetica;fontSize=11;fontColor=default;labelBackgroundColor=default;" vertex="1" parent="1">
          <mxGeometry x="220" y="362.5" width="100" height="40" as="geometry" />
        </mxCell>
        <mxCell id="CBy9VKY9iGGaSvIGsEqv-34" style="edgeStyle=none;shape=connector;rounded=0;orthogonalLoop=1;jettySize=auto;html=1;exitX=1;exitY=0.5;exitDx=0;exitDy=0;entryX=0;entryY=0.75;entryDx=0;entryDy=0;strokeColor=default;align=center;verticalAlign=middle;fontFamily=Helvetica;fontSize=11;fontColor=default;labelBackgroundColor=default;endArrow=none;endFill=0;" edge="1" parent="1" source="CBy9VKY9iGGaSvIGsEqv-33" target="CBy9VKY9iGGaSvIGsEqv-7">
          <mxGeometry relative="1" as="geometry" />
        </mxCell>
        <mxCell id="CBy9VKY9iGGaSvIGsEqv-33" value="genero" style="ellipse;whiteSpace=wrap;html=1;align=center;fontFamily=Helvetica;fontSize=11;fontColor=default;labelBackgroundColor=default;" vertex="1" parent="1">
          <mxGeometry x="220" y="409.5" width="100" height="40" as="geometry" />
        </mxCell>
        <mxCell id="CBy9VKY9iGGaSvIGsEqv-35" value="Reparto" style="rounded=0;whiteSpace=wrap;html=1;" vertex="1" parent="1">
          <mxGeometry x="342" y="630" width="120" height="65" as="geometry" />
        </mxCell>
        <mxCell id="CBy9VKY9iGGaSvIGsEqv-37" style="edgeStyle=none;shape=connector;rounded=0;orthogonalLoop=1;jettySize=auto;html=1;exitX=0.5;exitY=1;exitDx=0;exitDy=0;entryX=0.5;entryY=0;entryDx=0;entryDy=0;strokeColor=default;align=center;verticalAlign=middle;fontFamily=Helvetica;fontSize=11;fontColor=default;labelBackgroundColor=default;endArrow=none;endFill=0;" edge="1" parent="1" source="CBy9VKY9iGGaSvIGsEqv-36" target="CBy9VKY9iGGaSvIGsEqv-35">
          <mxGeometry relative="1" as="geometry" />
        </mxCell>
        <mxCell id="CBy9VKY9iGGaSvIGsEqv-36" value="participan" style="shape=rhombus;perimeter=rhombusPerimeter;whiteSpace=wrap;html=1;align=center;" vertex="1" parent="1">
          <mxGeometry x="342" y="505" width="120" height="60" as="geometry" />
        </mxCell>
        <mxCell id="CBy9VKY9iGGaSvIGsEqv-43" style="edgeStyle=none;shape=connector;rounded=0;orthogonalLoop=1;jettySize=auto;html=1;exitX=1;exitY=0.5;exitDx=0;exitDy=0;entryX=0;entryY=0;entryDx=0;entryDy=0;strokeColor=default;align=center;verticalAlign=middle;fontFamily=Helvetica;fontSize=11;fontColor=default;labelBackgroundColor=default;endArrow=none;endFill=0;" edge="1" parent="1" source="CBy9VKY9iGGaSvIGsEqv-38" target="CBy9VKY9iGGaSvIGsEqv-35">
          <mxGeometry relative="1" as="geometry" />
        </mxCell>
        <mxCell id="CBy9VKY9iGGaSvIGsEqv-38" value="director" style="ellipse;whiteSpace=wrap;html=1;align=center;fontStyle=4;fontFamily=Helvetica;fontSize=11;fontColor=default;labelBackgroundColor=default;" vertex="1" parent="1">
          <mxGeometry x="220" y="570.25" width="100" height="40" as="geometry" />
        </mxCell>
        <mxCell id="CBy9VKY9iGGaSvIGsEqv-46" style="edgeStyle=none;shape=connector;rounded=0;orthogonalLoop=1;jettySize=auto;html=1;exitX=1;exitY=0.5;exitDx=0;exitDy=0;entryX=0;entryY=0.25;entryDx=0;entryDy=0;strokeColor=default;align=center;verticalAlign=middle;fontFamily=Helvetica;fontSize=11;fontColor=default;labelBackgroundColor=default;endArrow=none;endFill=0;" edge="1" parent="1" source="CBy9VKY9iGGaSvIGsEqv-39" target="CBy9VKY9iGGaSvIGsEqv-35">
          <mxGeometry relative="1" as="geometry" />
        </mxCell>
        <mxCell id="CBy9VKY9iGGaSvIGsEqv-39" value="Protagonista1" style="ellipse;whiteSpace=wrap;html=1;align=center;fontFamily=Helvetica;fontSize=11;fontColor=default;labelBackgroundColor=default;" vertex="1" parent="1">
          <mxGeometry x="220" y="617.25" width="100" height="40" as="geometry" />
        </mxCell>
        <mxCell id="CBy9VKY9iGGaSvIGsEqv-45" style="edgeStyle=none;shape=connector;rounded=0;orthogonalLoop=1;jettySize=auto;html=1;exitX=1;exitY=0.5;exitDx=0;exitDy=0;entryX=0;entryY=0.75;entryDx=0;entryDy=0;strokeColor=default;align=center;verticalAlign=middle;fontFamily=Helvetica;fontSize=11;fontColor=default;labelBackgroundColor=default;endArrow=none;endFill=0;" edge="1" parent="1" source="CBy9VKY9iGGaSvIGsEqv-41" target="CBy9VKY9iGGaSvIGsEqv-35">
          <mxGeometry relative="1" as="geometry" />
        </mxCell>
        <mxCell id="CBy9VKY9iGGaSvIGsEqv-41" value="Protagonista2" style="ellipse;whiteSpace=wrap;html=1;align=center;fontFamily=Helvetica;fontSize=11;fontColor=default;labelBackgroundColor=default;" vertex="1" parent="1">
          <mxGeometry x="220" y="664.75" width="100" height="40" as="geometry" />
        </mxCell>
        <mxCell id="CBy9VKY9iGGaSvIGsEqv-44" style="edgeStyle=none;shape=connector;rounded=0;orthogonalLoop=1;jettySize=auto;html=1;exitX=1;exitY=0.5;exitDx=0;exitDy=0;entryX=0;entryY=1;entryDx=0;entryDy=0;strokeColor=default;align=center;verticalAlign=middle;fontFamily=Helvetica;fontSize=11;fontColor=default;labelBackgroundColor=default;endArrow=none;endFill=0;" edge="1" parent="1" source="CBy9VKY9iGGaSvIGsEqv-42" target="CBy9VKY9iGGaSvIGsEqv-35">
          <mxGeometry relative="1" as="geometry" />
        </mxCell>
        <mxCell id="CBy9VKY9iGGaSvIGsEqv-42" value="Protagonista3" style="ellipse;whiteSpace=wrap;html=1;align=center;fontFamily=Helvetica;fontSize=11;fontColor=default;labelBackgroundColor=default;" vertex="1" parent="1">
          <mxGeometry x="220" y="714.75" width="100" height="40" as="geometry" />
        </mxCell>
        <mxCell id="CBy9VKY9iGGaSvIGsEqv-48" style="edgeStyle=none;shape=connector;rounded=0;orthogonalLoop=1;jettySize=auto;html=1;exitX=1;exitY=0.5;exitDx=0;exitDy=0;entryX=0;entryY=1;entryDx=0;entryDy=0;strokeColor=default;align=center;verticalAlign=middle;fontFamily=Helvetica;fontSize=11;fontColor=default;labelBackgroundColor=default;endArrow=none;endFill=0;" edge="1" parent="1" source="CBy9VKY9iGGaSvIGsEqv-47" target="CBy9VKY9iGGaSvIGsEqv-7">
          <mxGeometry relative="1" as="geometry" />
        </mxCell>
        <mxCell id="CBy9VKY9iGGaSvIGsEqv-47" value="clasificacion" style="ellipse;whiteSpace=wrap;html=1;align=center;fontFamily=Helvetica;fontSize=11;fontColor=default;labelBackgroundColor=default;" vertex="1" parent="1">
          <mxGeometry x="220" y="456.5" width="100" height="40" as="geometry" />
        </mxCell>
      </root>
    </mxGraphModel>
  </diagram>
</mxfile>
